<svg width="78" height="78" viewBox="0 0 78 78" fill="none" xmlns="http://www.w3.org/2000/svg">
<path d="M75.2483 46.8C75.6108 46.7995 75.9699 46.8708 76.3047 47.0097C76.6395 47.1487 76.9435 47.3526 77.1991 47.6097C77.4548 47.8667 77.6569 48.1719 77.794 48.5075C77.9311 48.8431 78.0003 49.2026 77.9977 49.5651V62.0607C78.0003 62.4216 77.9317 62.7794 77.7958 63.1138C77.66 63.4481 77.4596 63.7524 77.206 64.0092C76.9525 64.2661 76.6508 64.4704 76.3182 64.6105C75.9856 64.7506 75.6287 64.8238 75.2678 64.8258C74.9069 64.8238 74.55 64.7506 74.2174 64.6105C73.8848 64.4704 73.5831 64.2661 73.3296 64.0092C73.076 63.7524 72.8756 63.4481 72.7398 63.1138C72.6039 62.7794 72.5353 62.4216 72.5379 62.0607V57.6732C65.4362 69.5916 52.2546 78 38.0512 78C20.8527 78 6.43878 67.3881 0.187264 51.0315C-0.0752205 50.35 -0.0586837 49.5926 0.233292 48.9232C0.525268 48.2538 1.06918 47.7264 1.74722 47.4552C3.15117 46.9053 4.73453 47.6112 5.28051 49.0347C10.7403 63.3165 23.1732 72.4737 38.0512 72.4737C51.1977 72.4737 63.4785 63.9639 69.1996 52.3731L63.4629 52.4121C63.102 52.4126 62.7446 52.342 62.411 52.2042C62.0774 52.0665 61.7743 51.8643 61.519 51.6093C61.2636 51.3543 61.061 51.0515 60.9228 50.7181C60.7846 50.3847 60.7134 50.0274 60.7134 49.6665C60.7041 48.9379 60.9843 48.2354 61.4925 47.7133C62.0007 47.1912 62.6953 46.8922 63.4239 46.8819L75.2483 46.8ZM39.9544 0C57.1451 0 71.5629 10.6119 77.8144 26.9685C78.0769 27.65 78.0604 28.4074 77.7684 29.0768C77.4764 29.7462 76.9325 30.2736 76.2545 30.5448C75.919 30.6756 75.5609 30.7385 75.2009 30.7298C74.8409 30.721 74.4863 30.6409 74.1576 30.4939C73.8288 30.347 73.5326 30.1361 73.286 29.8737C73.0394 29.6113 72.8474 29.3025 72.7212 28.9653C67.2613 14.6835 54.8285 5.5263 39.9505 5.5263C26.804 5.5263 14.5232 14.0361 8.8021 25.6269L14.5388 25.5879C14.8997 25.5874 15.2571 25.658 15.5907 25.7958C15.9242 25.9335 16.2274 26.1357 16.4827 26.3907C16.7381 26.6457 16.9407 26.9485 17.0789 27.2819C17.2171 27.6153 17.2882 27.9726 17.2882 28.3335C17.2976 29.0621 17.0174 29.7646 16.5092 30.2867C16.001 30.8088 15.3064 31.1078 14.5778 31.1181L2.74949 31.2C2.38697 31.2005 2.02793 31.1292 1.6931 30.9903C1.35827 30.8513 1.05427 30.6474 0.798659 30.3903C0.543044 30.1333 0.34087 29.8281 0.203804 29.4925C0.0667377 29.1569 -0.00250583 28.7974 6.92722e-05 28.4349V15.9393C6.92722e-05 14.4105 1.22073 13.1742 2.72999 13.1742C4.23534 13.1742 5.45991 14.4105 5.45991 15.9393V20.3268C12.5616 8.4084 25.7432 0 39.9466 0H39.9544Z" fill="#fff"/>
<rect x="24.5" y="17.5" width="28" height="42.25" rx="4.5" stroke="#fff" strokeWidth="5"/>
<line x1="24.25" y1="50.75" x2="52.7599" y2="50.75" stroke="#fff" strokeWidth="5"/>
<path d="M25.7996 38.25H51.5312L52 39.75V40.875V43.5V48.75H25.75L25.7748 43.5L25.75 40.875V39.375V38.625V38.25H25.7996Z" fill="#fff"/>
<path d="M51.9988 39.75C51.9988 41.8211 49.9002 43.5 47.3113 43.5C44.7225 43.5 39.8121 42.375 41.2179 39.75C41.6867 37.125 44.7225 36 47.3113 36C49.9002 36 51.9991 37.875 51.9988 39.75Z" fill="#fff"/>
<path d="M41.6875 38.25C45.4375 40.875 35.8779 39.5196 33.0593 39.5196C30.2406 39.5196 24.244 39.8802 26.0999 37.7166C27.9558 35.1924 30.2407 33.75 33.0594 33.75C35.878 33.75 38.9037 35.7258 41.6875 38.25Z" fill="#fff"/>
<circle cx="41.5" cy="26.25" r="2.25" fill="#fff"/>
</svg>
