<svg width="47" height="42" viewBox="0 0 47 42" fill="none" xmlns="http://www.w3.org/2000/svg">
<path d="M23.3329 30.7995C27.4566 30.7995 30.7995 27.4566 30.7995 23.3329C30.7995 19.2092 27.4566 15.8662 23.3329 15.8662C19.2092 15.8662 15.8662 19.2092 15.8662 23.3329C15.8662 27.4566 19.2092 30.7995 23.3329 30.7995Z" fill="#F9F9F9"/>
<path d="M16.3333 0L12.0633 4.66667H4.66667C2.1 4.66667 0 6.76667 0 9.33333V37.3333C0 39.9 2.1 42 4.66667 42H42C44.5667 42 46.6667 39.9 46.6667 37.3333V9.33333C46.6667 6.76667 44.5667 4.66667 42 4.66667H34.6033L30.3333 0H16.3333ZM23.3333 35C16.8933 35 11.6667 29.7733 11.6667 23.3333C11.6667 16.8933 16.8933 11.6667 23.3333 11.6667C29.7733 11.6667 35 16.8933 35 23.3333C35 29.7733 29.7733 35 23.3333 35Z" fill="#F9F9F9"/>
</svg>
