<svg width="599" height="269" viewBox="0 0 599 269" fill="none" xmlns="http://www.w3.org/2000/svg">
<path d="M584.484 244.216H29.0352" stroke="#ADADAD" stroke-width="19.8682" stroke-miterlimit="10" stroke-linecap="round" stroke-linejoin="round"/>
<path d="M526.633 109.466H361.656V190.51H526.633V109.466Z" fill="#00D0B0"/>
<path d="M207.082 109.466H42.1055V190.51H207.082V109.466Z" fill="#00D0B0"/>
<path d="M35.4895 170.649H13.8522C6.19878 170.649 0 164.451 0 156.797V145.145C0 137.492 6.19878 131.293 13.8522 131.293H35.4968V170.649H35.4895Z" fill="#8EA7B4"/>
<path d="M590.754 170.649H582.341C578.174 170.649 574.797 167.272 574.797 163.106V138.837C574.797 134.67 578.174 131.293 582.341 131.293H590.754C594.921 131.293 598.298 134.67 598.298 138.837V163.106C598.291 167.272 594.914 170.649 590.754 170.649Z" fill="#8EA7B4"/>
<path d="M559.936 105.196C532.861 88.72 473.87 67.821 424.587 65.5842L357.628 12.3683C348.352 4.38593 336.525 0 324.288 0H144.333C129.041 0 112.148 5.73094 102.433 17.5437L57.1923 66.6076C37.4922 71.2494 22.8066 88.9027 22.8066 110.021V170.159C22.8066 181.395 31.9147 190.503 43.15 190.503H48.4789C48.4789 152.893 78.9684 122.404 116.578 122.404C154.187 122.404 184.677 152.893 184.677 190.503H375.143C375.143 152.893 405.632 122.404 443.242 122.404C480.851 122.404 511.34 152.893 511.34 190.503H564.703C576.625 190.503 586.771 181.804 588.591 170.02V150.686C588.613 125.818 581.179 118.12 559.936 105.196Z" fill="#00D0B0"/>
<path d="M413.154 65.6351L424.586 65.5839L421.641 63.2448L357.621 12.368C355.808 10.811 353.9 9.39288 351.904 8.11365L413.154 65.6351Z" fill="#EEEFF8"/>
<path d="M22.8145 162.849V170.166C22.8145 181.402 31.9226 190.51 43.1578 190.51H48.4867C48.4867 180.656 50.592 171.307 54.3566 162.849H22.8145Z" fill="#00D0B0"/>
<path d="M178.822 162.849C182.587 171.307 184.692 180.656 184.692 190.51H375.158C375.158 180.656 377.264 171.307 381.028 162.849H178.822Z" fill="#00D0B0"/>
<path d="M505.484 162.849C509.249 171.307 511.354 180.656 511.354 190.51H564.716C576.639 190.51 586.785 181.811 588.605 170.027V162.849H505.484V162.849Z" fill="#00D0B0"/>
<path d="M242.717 15.0367H220.078V73.4719H242.717V15.0367Z" fill="#00D0B0"/>
<path d="M404.17 73.4938L242.717 73.4719V15.0367H332.307C336.963 15.0367 341.451 16.7692 344.902 19.8905L404.17 73.4938Z" fill="#334C81"/>
<path d="M384.871 73.4939H404.169L384.871 56.038V73.4939Z" fill="#00D0B0"/>
<path opacity="0.63" d="M344.879 19.8686C341.429 16.7619 336.948 15.0367 332.306 15.0367H321.378L262.936 73.4792H291.269C309.134 55.6066 327.007 37.7412 344.879 19.8686Z" fill="url(#paint0_radial_576_1131)"/>
<path opacity="0.63" d="M300.721 15.0367H269.559L242.717 41.8786V73.0333L300.721 15.0367Z" fill="url(#paint1_radial_576_1131)"/>
<path d="M151.993 15.0367H220.085V73.4938H85.2246L133.755 22.8218C138.521 17.8437 145.107 15.0367 151.993 15.0367Z" fill="#334C81"/>
<path opacity="0.63" d="M203.763 15.0367H173.252L114.795 73.4938H145.306L203.763 15.0367Z" fill="url(#paint2_radial_576_1131)"/>
<path opacity="0.63" d="M220.08 47.339V24.174C203.64 40.6139 187.2 57.0538 170.76 73.4937H194.21C202.85 64.7876 211.468 56.0669 220.08 47.339Z" fill="url(#paint3_radial_576_1131)"/>
<path d="M498.465 193.923C500.363 163.428 477.18 137.169 446.685 135.271C416.19 133.374 389.93 156.557 388.033 187.052C386.136 217.547 409.319 243.806 439.814 245.703C470.309 247.601 496.568 224.418 498.465 193.923Z" fill="#1D3354"/>
<path d="M443.257 221.877C460.581 221.877 474.624 207.834 474.624 190.511C474.624 173.187 460.581 159.144 443.257 159.144C425.934 159.144 411.891 173.187 411.891 190.511C411.891 207.834 425.934 221.877 443.257 221.877Z" fill="#FFFEFF"/>
<path d="M463.073 191.72C463.754 180.772 455.431 171.345 444.483 170.664C433.535 169.982 424.108 178.305 423.427 189.253C422.746 200.201 431.069 209.629 442.017 210.31C452.965 210.991 462.392 202.668 463.073 191.72Z" fill="#8EA7B4"/>
<path d="M451.052 192.385C452.066 188.087 449.405 183.78 445.107 182.765C440.808 181.75 436.501 184.412 435.486 188.71C434.471 193.008 437.133 197.315 441.431 198.33C445.729 199.345 450.037 196.684 451.052 192.385Z" fill="#4F636E"/>
<path d="M155.7 229.629C177.304 208.025 177.304 172.998 155.7 151.394C134.096 129.789 99.0693 129.789 77.4652 151.394C55.8612 172.998 55.8612 208.025 77.4653 229.629C99.0693 251.233 134.096 251.233 155.7 229.629Z" fill="#1D3354"/>
<path d="M116.583 221.876C133.907 221.876 147.95 207.833 147.95 190.51C147.95 173.186 133.907 159.143 116.583 159.143C99.2601 159.143 85.2168 173.186 85.2168 190.51C85.2168 207.833 99.2601 221.876 116.583 221.876Z" fill="#FFFEFF"/>
<path d="M134.971 197.991C139.1 187.83 134.209 176.245 124.048 172.116C113.886 167.988 102.302 172.878 98.1729 183.04C94.0442 193.201 98.9349 204.786 109.096 208.915C119.258 213.043 130.843 208.153 134.971 197.991Z" fill="#8EA7B4"/>
<path d="M124.484 191.776C125.188 187.416 122.225 183.31 117.865 182.605C113.505 181.9 109.399 184.863 108.694 189.223C107.989 193.583 110.953 197.689 115.313 198.394C119.673 199.099 123.779 196.136 124.484 191.776Z" fill="#4F636E"/>
<path d="M380.23 52.96C385.062 52.96 388.98 56.8781 388.98 61.7099V74.0709C388.98 78.9027 385.062 82.8208 380.23 82.8208C377.123 82.8208 374.602 80.2989 374.602 77.1922V58.5813C374.602 55.4819 377.123 52.96 380.23 52.96Z" fill="#00D0B0"/>
<path d="M574.797 129.641V145.291C574.797 149.209 571.617 152.389 567.699 152.389H561.289C558.335 152.389 555.689 150.562 554.651 147.799L545.733 124.18C543.635 118.632 548.891 113.055 554.527 114.911C560.126 116.754 566.61 119.641 572.173 124.122C573.847 125.46 574.797 127.506 574.797 129.641Z" fill="#FF7F00"/>
<path d="M45.1393 109.466H35.4902V99.9485C35.4902 90.1459 43.4361 82.2001 53.2386 82.2001H57.4418L45.1393 109.466Z" fill="#FF7F00"/>
<path d="M357.226 84.5603H292.855V88.8366H357.226V84.5603Z" fill="#EEEFF8"/>
<path d="M218.265 84.5603H153.895V88.8366H218.265V84.5603Z" fill="#EEEFF8"/>
<path d="M397.176 73.4938V152.769" stroke="#00D0B0" stroke-width="6.47" stroke-miterlimit="10"/>
<path d="M231.402 67.8938V174.991" stroke="#00D0B0" stroke-width="6.47" stroke-miterlimit="10"/>
<path d="M94.6914 73.4938V131.293" stroke="#00D0B0" stroke-width="6.47" stroke-miterlimit="10"/>
<path d="M555.002 113.136C545.989 105.146 520.821 82.7922 473.994 79.3639C473.994 79.3639 508.256 92.4924 526.121 113.136H555.002Z" fill="#EEEFF8"/>
<defs>
<radialGradient id="paint0_radial_576_1131" cx="0" cy="0" r="1" gradientUnits="userSpaceOnUse" gradientTransform="translate(447.903 -81.3936) scale(250.181 250.181)">
<stop stop-color="white"/>
<stop offset="1" stop-color="white" stop-opacity="0"/>
</radialGradient>
<radialGradient id="paint1_radial_576_1131" cx="0" cy="0" r="1" gradientUnits="userSpaceOnUse" gradientTransform="translate(476.444 -104.676) scale(250.181 250.181)">
<stop stop-color="white"/>
<stop offset="1" stop-color="white" stop-opacity="0"/>
</radialGradient>
<radialGradient id="paint2_radial_576_1131" cx="0" cy="0" r="1" gradientUnits="userSpaceOnUse" gradientTransform="translate(365.56 -94.8784) scale(239.733 239.733)">
<stop stop-color="white"/>
<stop offset="1" stop-color="white" stop-opacity="0"/>
</radialGradient>
<radialGradient id="paint3_radial_576_1131" cx="0" cy="0" r="1" gradientUnits="userSpaceOnUse" gradientTransform="translate(354.545 -99.1829) scale(239.733 239.733)">
<stop stop-color="white"/>
<stop offset="1" stop-color="white" stop-opacity="0"/>
</radialGradient>
</defs>
</svg>
