<svg width="44" height="36" viewBox="0 0 44 36" fill="none" xmlns="http://www.w3.org/2000/svg">
<path d="M40 2H4C2.89543 2 2 2.89543 2 4V32C2 33.1046 2.89543 34 4 34H40C41.1046 34 42 33.1046 42 32V4C42 2.89543 41.1046 2 40 2Z" stroke="#233299" strokeWidth="3" stroke-linejoin="round"/>
<path d="M26 14H34M28 22H34" stroke="#233299" strokeWidth="2" strokeLinecap="round" stroke-linejoin="round"/>
<path d="M21.0176 15.9248L19.9232 12.6408C19.7644 12.1628 19.4591 11.747 19.0505 11.4524C18.6419 11.1579 18.1509 10.9996 17.6472 11H10.3528C9.84911 10.9996 9.35809 11.1579 8.94951 11.4524C8.54092 11.747 8.23556 12.1628 8.0768 12.6408L6.9824 15.9248C6.69169 16.0468 6.44342 16.2518 6.26868 16.5142C6.09393 16.7766 6.00047 17.0847 6 17.4V21.4C6 22.0024 6.3384 22.5216 6.8312 22.7944C6.8208 22.8472 6.8 22.8952 6.8 22.9504V24.6C6.8 24.8122 6.88429 25.0157 7.03431 25.1657C7.18434 25.3157 7.38783 25.4 7.6 25.4H8.4C8.61217 25.4 8.81566 25.3157 8.96569 25.1657C9.11571 25.0157 9.2 24.8122 9.2 24.6V23H18.8V24.6C18.8 24.8122 18.8843 25.0157 19.0343 25.1657C19.1843 25.3157 19.3878 25.4 19.6 25.4H20.4C20.6122 25.4 20.8157 25.3157 20.9657 25.1657C21.1157 25.0157 21.2 24.8122 21.2 24.6V22.9504C21.2 22.8952 21.1792 22.8464 21.1688 22.7944C21.4195 22.6577 21.6289 22.4562 21.7751 22.2109C21.9214 21.9656 21.999 21.6856 22 21.4V17.4C22 16.7368 21.5936 16.1672 21.0176 15.9248ZM7.6 21.4V17.4H20.4L20.4016 21.4H7.6ZM10.3528 12.6H17.6464C17.9912 12.6 18.2968 12.8192 18.4056 13.1472L19.2904 15.8H8.7096L9.5936 13.1472C9.64668 12.9878 9.74857 12.8492 9.88484 12.751C10.0211 12.6528 10.1848 12.6 10.3528 12.6Z" fill="#233299"/>
<path d="M9.60039 20.6002C10.2631 20.6002 10.8004 20.0629 10.8004 19.4002C10.8004 18.7375 10.2631 18.2002 9.60039 18.2002C8.93765 18.2002 8.40039 18.7375 8.40039 19.4002C8.40039 20.0629 8.93765 20.6002 9.60039 20.6002Z" fill="#233299"/>
<path d="M18.3992 20.6002C19.062 20.6002 19.5992 20.0629 19.5992 19.4002C19.5992 18.7375 19.062 18.2002 18.3992 18.2002C17.7365 18.2002 17.1992 18.7375 17.1992 19.4002C17.1992 20.0629 17.7365 20.6002 18.3992 20.6002Z" fill="#233299"/>
</svg>
