<svg width="38" height="34" viewBox="0 0 38 34" fill="none" xmlns="http://www.w3.org/2000/svg">
<path fillRule="evenodd" clipRule="evenodd" d="M1.90373 18.8883C0.156116 18.8883 -0.664505 16.7405 0.64241 15.5883L17.7387 0.476525C18.0863 0.169546 18.5351 0 19 0C19.4649 0 19.9137 0.169546 20.2613 0.476525L37.3576 15.5883C38.6645 16.7405 37.8439 18.8883 36.0963 18.8883H34.1967V32.111C34.1967 32.612 33.9965 33.0925 33.6403 33.4467C33.2841 33.801 32.8009 34 32.2971 34H5.7029C5.1991 34 4.71594 33.801 4.3597 33.4467C4.00345 33.0925 3.80332 32.612 3.80332 32.111V18.8883H1.90373ZM13.3012 30.2221V20.7772C13.3012 20.2763 13.5014 19.7958 13.8576 19.4415C14.2139 19.0873 14.697 18.8883 15.2008 18.8883H22.7992C23.303 18.8883 23.7861 19.0873 24.1424 19.4415C24.4986 19.7958 24.6988 20.2763 24.6988 20.7772V30.2221H30.3975V16.9993C30.3975 16.6633 30.4876 16.3333 30.6585 16.0434C30.8295 15.7535 31.0751 15.5142 31.3701 15.3502L19 4.41313L6.6299 15.3502C6.92487 15.5142 7.17051 15.7535 7.34148 16.0434C7.51244 16.3333 7.60254 16.6633 7.60249 16.9993V30.2221H13.3012ZM17.1004 30.2221V22.6662H20.8996V30.2221H17.1004Z" fill="current"/>
</svg>
