<svg width="41" height="47" viewBox="0 0 41 47" fill="none" xmlns="http://www.w3.org/2000/svg">
<path d="M2 8.14258V38.8422V8.14258Z" fill="white"/>
<path d="M2 8.14258V38.8422" stroke="white" strokeWidth="3" strokeLinecap="round"/>
<path d="M38.8594 17.3574V38.8574V17.3574Z" fill="white"/>
<path d="M38.8594 17.3574V38.8574" stroke="white" strokeWidth="3" strokeLinecap="round" strokeLinejoin="round"/>
<path d="M8.14453 2H23.5017H8.14453Z" fill="white"/>
<path d="M8.14453 2H23.5017" stroke="white" strokeWidth="3" strokeLinecap="round" strokeLinejoin="round"/>
<path d="M8.14453 45H32.716H8.14453Z" fill="white"/>
<path d="M8.14453 45H32.716" stroke="white" strokeWidth="3" strokeLinecap="round"/>
<path d="M38.8577 38.8574C38.8745 41.9253 35.7863 45.0003 32.7148 45.0003L38.8577 38.8574Z" fill="white"/>
<path d="M38.8577 38.8574C38.8745 41.9253 35.7863 45.0003 32.7148 45.0003" stroke="white" strokeWidth="3" strokeLinecap="round" strokeLinejoin="round"/>
<path d="M2.00168 38.8574C2.00168 41.9288 5.0731 45.0003 8.14453 45.0003L2.00168 38.8574Z" fill="white"/>
<path d="M2.00168 38.8574C2.00168 41.9288 5.0731 45.0003 8.14453 45.0003" stroke="white" strokeWidth="3" strokeLinecap="round" strokeLinejoin="round"/>
<path d="M2.00168 8.13867C2.00168 5.0717 5.0731 2.06867 8.14453 2.00027L2.00168 8.13867Z" fill="white"/>
<path d="M2.00168 8.13867C2.00168 5.0717 5.0731 2.06867 8.14453 2.00027" stroke="white" strokeWidth="3" strokeLinecap="round" strokeLinejoin="round"/>
<path d="M38.8404 17.3709L23.5 2L38.8404 17.3709Z" fill="white"/>
<path d="M38.8404 17.3709L23.5 2" stroke="white" strokeWidth="3" strokeLinecap="round" strokeLinejoin="round"/>
<path d="M23.5017 11.2139C23.5111 14.2686 26.5855 17.3567 29.6445 17.3567L23.5017 11.2139Z" fill="white"/>
<path d="M23.5017 11.2139C23.5111 14.2686 26.5855 17.3567 29.6445 17.3567" stroke="white" strokeWidth="3" strokeLinecap="round" strokeLinejoin="round"/>
<path d="M23.5 11.2143V2V11.2143Z" fill="white"/>
<path d="M23.5 11.2143V2" stroke="white" strokeWidth="3" strokeLinecap="round" strokeLinejoin="round"/>
<path d="M29.6445 17.3574H38.8588H29.6445Z" fill="white"/>
<path d="M29.6445 17.3574H38.8588" stroke="white" strokeWidth="3" strokeLinecap="round" strokeLinejoin="round"/>
<path d="M8.14453 38.9287H26.002H8.14453Z" fill="white"/>
<path d="M8.14453 38.9287H26.002" stroke="white" strokeWidth="3" strokeLinecap="round" strokeLinejoin="round"/>
<path d="M8.14062 32.8574H32.9992H8.14062Z" fill="white"/>
<path d="M8.14062 32.8574H32.9992" stroke="white" strokeWidth="3" strokeLinecap="round" strokeLinejoin="round"/>
<path d="M8.14062 26.7861H28.0022H8.14062Z" fill="white"/>
<path d="M8.14062 26.7861H28.0022" stroke="white" strokeWidth="3" strokeLinecap="round" strokeLinejoin="round"/>
<path d="M10.1632 8.04311C9.82132 8.12968 9.45284 8.3672 9.2353 8.64023C9.10433 8.80672 8.95116 9.12637 8.90677 9.32615C8.85571 9.55479 8.86015 9.94325 8.91565 10.163C9.05327 10.7046 9.49723 11.1863 10.03 11.3617C10.7736 11.6103 11.5572 11.3573 12.01 10.7246C12.4029 10.1719 12.434 9.4327 12.0855 8.83557C11.9501 8.60472 11.6593 8.3228 11.4351 8.20737C11.1243 8.04755 11.0089 8.01869 10.6471 8.00981C10.3874 8.00315 10.2941 8.00981 10.1632 8.04311Z" fill="white"/>
<path d="M13.9796 8.04461C13.4091 8.19555 12.9607 8.62619 12.7632 9.21C12.7099 9.36983 12.7032 9.42088 12.7032 9.70945C12.701 10.0668 12.7277 10.1934 12.8586 10.4753C13.0651 10.917 13.4913 11.27 13.9708 11.4009C14.2127 11.4653 14.63 11.4653 14.872 11.4009C15.3492 11.2722 15.7555 10.9392 15.973 10.493C16.1151 10.2045 16.1417 10.0757 16.1395 9.70945C16.1395 9.42088 16.1328 9.36983 16.0796 9.21C15.882 8.62175 15.4314 8.19111 14.8542 8.04461C14.6189 7.98467 14.2105 7.98467 13.9796 8.04461Z" fill="white"/>
<path d="M10.2879 11.8409C10.1237 11.8698 9.96385 11.9275 9.77073 12.0252C9.63088 12.0962 9.54875 12.1606 9.38227 12.3271C9.14475 12.569 9.05374 12.7089 8.95163 12.9886C8.88503 13.1772 8.88281 13.195 8.88281 13.5502C8.88281 13.9031 8.88503 13.9231 8.95163 14.1096C9.14253 14.6423 9.56651 15.0463 10.1148 15.2195C10.2569 15.2638 10.3279 15.2705 10.5921 15.2705C11.0382 15.2683 11.3113 15.1795 11.6509 14.9242C11.9439 14.7067 12.1947 14.3227 12.2813 13.9608C12.3368 13.7344 12.3324 13.326 12.2724 13.0995C12.1171 12.5224 11.6331 12.034 11.0582 11.8742C10.905 11.832 10.4455 11.8121 10.2879 11.8409Z" fill="white"/>
<path d="M14.0543 11.8561C13.8657 11.8961 13.6859 11.9649 13.5149 12.0648C13.3529 12.1624 13.0332 12.4821 12.9356 12.6441C12.6048 13.208 12.6048 13.8917 12.9356 14.4555C13.0332 14.6175 13.3529 14.9372 13.5149 15.0349C14.0765 15.3634 14.7647 15.3634 15.3263 15.0349C15.4883 14.9372 15.808 14.6175 15.9056 14.4555C16.3785 13.6475 16.1587 12.6419 15.3907 12.1114C15.0266 11.8605 14.505 11.7584 14.0543 11.8561Z" fill="white"/>
<path d="M7.52083 16.6488C6.74612 16.7576 6.27553 17.0062 6.0824 17.4102C6.01137 17.5567 6.00027 17.6011 6.00027 17.7454C5.99805 17.8675 6.00915 17.9341 6.04245 18.0007C6.19339 18.307 6.69951 18.5401 7.52971 18.6866C8.15125 18.7976 8.28222 18.8286 8.3244 18.8797C8.3466 18.9063 8.35992 18.9396 8.35548 18.9507C8.34216 18.9929 8.23783 19.0573 8.14903 19.0773C7.84048 19.1505 7.05468 19.0373 6.44867 18.8331C6.26887 18.7709 6.10238 18.7221 6.07575 18.7221C6.03135 18.7221 6.03135 18.7288 6.03579 19.2482L6.04245 19.7765L6.09794 19.7832C6.12902 19.7876 6.21337 19.8098 6.28663 19.832C6.65733 19.9496 7.6629 20.0296 8.24005 19.9896C8.82829 19.9452 9.20788 19.8586 9.55639 19.6855C9.81166 19.5567 9.96483 19.4124 10.0714 19.1993C10.138 19.0639 10.1469 19.0218 10.1491 18.8775C10.1491 18.7354 10.1402 18.6955 10.0891 18.6067C9.91599 18.3136 9.49201 18.1094 8.6951 17.9363C8.4931 17.8919 8.23117 17.8342 8.1113 17.8075C7.77167 17.7321 7.69176 17.6322 7.89598 17.5278C7.98255 17.4857 8.02695 17.479 8.27778 17.479C8.72396 17.479 9.36992 17.5922 9.66515 17.7232L9.76061 17.7654V17.257C9.76061 16.7886 9.75839 16.7487 9.72065 16.7376C9.69845 16.7309 9.54085 16.7043 9.37214 16.6777C8.95704 16.6155 7.87378 16.5977 7.52083 16.6488Z" fill="white"/>
<path d="M14.7539 17.2456V17.8116H15.4642H16.1746V18.8882V19.9648H16.8738H17.573V18.8882V17.8116H18.2723H18.9715V17.2456V16.6795H16.8627H14.7539V17.2456Z" fill="white"/>
<path d="M10.9269 18.3133C10.4874 19.199 10.1256 19.9338 10.1211 19.9449C10.1167 19.956 10.4785 19.9648 10.9758 19.9648H11.8393L12.079 19.3655C12.2699 18.8927 12.3298 18.7662 12.3609 18.7662C12.3831 18.7662 12.4985 18.8172 12.6184 18.8771C13.0135 19.0791 13.3199 19.3833 13.5063 19.7584L13.6084 19.9648H14.4631C15.2666 19.9648 15.3155 19.9626 15.3021 19.9249C15.2933 19.9049 14.9447 19.1702 14.5274 18.2956L13.7683 16.7017H12.7472H11.7238L10.9269 18.3133ZM12.9469 18.0736C13.0268 18.3333 13.0912 18.5531 13.0912 18.5664C13.0912 18.5797 12.9647 18.5886 12.7472 18.5886C12.5585 18.5886 12.4031 18.5819 12.4031 18.573C12.4031 18.5442 12.7871 17.5897 12.796 17.5985C12.8004 17.603 12.8692 17.8161 12.9469 18.0736Z" fill="white"/>
</svg>
