<svg width="41" height="47" viewBox="0 0 41 47" fill="none" xmlns="http://www.w3.org/2000/svg">
<path d="M2 8.14258V38.8422V8.14258Z" fill="white"/>
<path d="M2 8.14258V38.8422" stroke="#F6F7FC" stroke-width="3" stroke-linecap="round"/>
<path d="M38.8594 17.3574V38.8574V17.3574Z" fill="white"/>
<path d="M38.8594 17.3574V38.8574" stroke="#F6F7FC" stroke-width="3" stroke-linecap="round" stroke-linejoin="round"/>
<path d="M8.14453 2H23.5017H8.14453Z" fill="white"/>
<path d="M8.14453 2H23.5017" stroke="#F6F7FC" stroke-width="3" stroke-linecap="round" stroke-linejoin="round"/>
<path d="M8.14453 45H32.716H8.14453Z" fill="white"/>
<path d="M8.14453 45H32.716" stroke="#F6F7FC" stroke-width="3" stroke-linecap="round"/>
<path d="M38.8577 38.8574C38.8745 41.9253 35.7863 45.0003 32.7148 45.0003L38.8577 38.8574Z" fill="white"/>
<path d="M38.8577 38.8574C38.8745 41.9253 35.7863 45.0003 32.7148 45.0003" stroke="#F6F7FC" stroke-width="3" stroke-linecap="round" stroke-linejoin="round"/>
<path d="M2.00168 38.8574C2.00168 41.9288 5.0731 45.0003 8.14453 45.0003L2.00168 38.8574Z" fill="white"/>
<path d="M2.00168 38.8574C2.00168 41.9288 5.0731 45.0003 8.14453 45.0003" stroke="#F6F7FC" stroke-width="3" stroke-linecap="round" stroke-linejoin="round"/>
<path d="M2.00168 8.13867C2.00168 5.0717 5.0731 2.06867 8.14453 2.00027L2.00168 8.13867Z" fill="white"/>
<path d="M2.00168 8.13867C2.00168 5.0717 5.0731 2.06867 8.14453 2.00027" stroke="#F6F7FC" stroke-width="3" stroke-linecap="round" stroke-linejoin="round"/>
<path d="M38.8404 17.3709L23.5 2L38.8404 17.3709Z" fill="white"/>
<path d="M38.8404 17.3709L23.5 2" stroke="#F6F7FC" stroke-width="3" stroke-linecap="round" stroke-linejoin="round"/>
<path d="M23.5017 11.2139C23.5111 14.2686 26.5855 17.3567 29.6445 17.3567L23.5017 11.2139Z" fill="white"/>
<path d="M23.5017 11.2139C23.5111 14.2686 26.5855 17.3567 29.6445 17.3567" stroke="#F6F7FC" stroke-width="3" stroke-linecap="round" stroke-linejoin="round"/>
<path d="M23.5 11.2143V2V11.2143Z" fill="white"/>
<path d="M23.5 11.2143V2" stroke="#F6F7FC" stroke-width="3" stroke-linecap="round" stroke-linejoin="round"/>
<path d="M29.6445 17.3574H38.8588H29.6445Z" fill="white"/>
<path d="M29.6445 17.3574H38.8588" stroke="#F6F7FC" stroke-width="3" stroke-linecap="round" stroke-linejoin="round"/>
<path d="M8.14062 32H32.9992H8.14062Z" fill="white"/>
<path d="M8.14062 32H32.9992" stroke="#F6F7FC" stroke-width="3" stroke-linecap="round" stroke-linejoin="round"/>
<path d="M23.2921 37.0353C22.9502 37.1219 22.5817 37.3594 22.3642 37.6324C22.2332 37.7989 22.0801 38.1186 22.0357 38.3183C21.9846 38.547 21.9891 38.9354 22.0446 39.1552C22.1822 39.6968 22.6261 40.1785 23.1589 40.3539C23.9025 40.6025 24.6861 40.3494 25.1389 39.7168C25.5319 39.1641 25.5629 38.4249 25.2144 37.8278C25.079 37.5969 24.7882 37.315 24.564 37.1996C24.2532 37.0397 24.1378 37.0109 23.776 37.002C23.5163 36.9953 23.423 37.002 23.2921 37.0353Z" fill="white"/>
<path d="M28.2921 37.0353C27.9502 37.1219 27.5817 37.3594 27.3642 37.6324C27.2332 37.7989 27.0801 38.1186 27.0357 38.3183C26.9846 38.547 26.9891 38.9354 27.0446 39.1552C27.1822 39.6968 27.6261 40.1785 28.1589 40.3539C28.9025 40.6025 29.6861 40.3494 30.1389 39.7168C30.5319 39.1641 30.5629 38.4249 30.2144 37.8278C30.079 37.5969 29.7882 37.315 29.564 37.1996C29.2532 37.0397 29.1378 37.0109 28.776 37.002C28.5163 36.9953 28.423 37.002 28.2921 37.0353Z" fill="white"/>
<path d="M33.2921 37.0353C32.9502 37.1219 32.5817 37.3594 32.3642 37.6324C32.2332 37.7989 32.0801 38.1186 32.0357 38.3183C31.9846 38.547 31.9891 38.9354 32.0446 39.1552C32.1822 39.6968 32.6261 40.1785 33.1589 40.3539C33.9025 40.6025 34.6861 40.3494 35.1389 39.7168C35.5319 39.1641 35.5629 38.4249 35.2144 37.8278C35.079 37.5969 34.7882 37.315 34.564 37.1996C34.2532 37.0397 34.1378 37.0109 33.776 37.002C33.5163 36.9953 33.423 37.002 33.2921 37.0353Z" fill="white"/>
<path d="M8.14062 25H28.0022H8.14062Z" fill="white"/>
<path d="M8.14062 25H28.0022" stroke="#F6F7FC" stroke-width="3" stroke-linecap="round" stroke-linejoin="round"/>
<path d="M8 18H20H8Z" fill="white"/>
<path d="M8 18H20" stroke="#F6F7FC" stroke-width="3" stroke-linecap="round" stroke-linejoin="round"/>
<path d="M8 11H16H8Z" fill="white"/>
<path d="M8 11H16" stroke="#F6F7FC" stroke-width="3" stroke-linecap="round" stroke-linejoin="round"/>
</svg>
