<svg width="34" height="46" viewBox="0 0 34 46" fill="none" xmlns="http://www.w3.org/2000/svg">
<path d="M27.488 21.4353C27.7085 21.207 27.8305 20.9012 27.8277 20.5838C27.825 20.2664 27.6977 19.9628 27.4732 19.7383C27.2488 19.5139 26.9452 19.3866 26.6278 19.3838C26.3104 19.3811 26.0046 19.5031 25.7763 19.7236L16.9479 28.552L12.9617 24.5657C12.7333 24.3452 12.4276 24.2232 12.1102 24.2259C11.7928 24.2287 11.4892 24.356 11.2647 24.5805C11.0403 24.8049 10.913 25.1085 10.9102 25.4259C10.9074 25.7433 11.0295 26.0491 11.25 26.2774L16.9479 31.9753L27.488 21.4353Z" fill="current"/>
<path fill-rule="evenodd" clip-rule="evenodd" d="M33.8944 12.1053V37.5263C33.8944 38.4895 33.5118 39.4132 32.8308 40.0942C32.1497 40.7753 31.226 41.1579 30.2628 41.1579H8.47338C7.51022 41.1579 6.58651 40.7753 5.90546 40.0942C5.22441 39.4132 4.8418 38.4895 4.8418 37.5263V3.63158C4.8418 2.66842 5.22441 1.74472 5.90546 1.06367C6.58651 0.382612 7.51022 0 8.47338 0H21.7892L33.8944 12.1053ZM21.7892 13.3158C21.4681 13.3158 21.1602 13.1883 20.9332 12.9612C20.7062 12.7342 20.5786 12.4263 20.5786 12.1053V2.42105H8.47338C8.15232 2.42105 7.84442 2.54859 7.6174 2.77561C7.39039 3.00263 7.26285 3.31053 7.26285 3.63158V37.5263C7.26285 37.8474 7.39039 38.1553 7.6174 38.3823C7.84442 38.6093 8.15232 38.7368 8.47338 38.7368H30.2628C30.5839 38.7368 30.8918 38.6093 31.1188 38.3823C31.3458 38.1553 31.4734 37.8474 31.4734 37.5263V13.3158H21.7892ZM22.9997 4.63389L29.2605 10.8947H22.9997V4.63389Z" fill="current"/>
<path d="M2.42105 7.2627V39.9469C2.42105 40.9101 2.80366 41.8338 3.48472 42.5148C4.16577 43.1959 5.08948 43.5785 6.05263 43.5785H29.0526V45.9995H6.05263C4.44737 45.9995 2.90786 45.3619 1.77277 44.2268C0.637686 43.0917 0 41.5522 0 39.9469V7.2627H2.42105Z" fill="current"/>
</svg>
