<svg width="38" height="39" viewBox="0 0 38 39" fill="none" xmlns="http://www.w3.org/2000/svg">
<path fillRule="evenodd" clipRule="evenodd" d="M15.9 0.235695C16.7345 -0.0146398 17.616 -0.0664256 18.474 0.0844713C19.3321 0.235368 20.143 0.584769 20.842 1.10478C21.5411 1.6248 22.1088 2.30102 22.5 3.07949C22.8913 3.85795 23.0951 4.71708 23.0952 5.58832V32.834C23.0951 33.7052 22.8913 34.5643 22.5 35.3428C22.1088 36.1213 21.5411 36.7975 20.842 37.3175C20.143 37.8375 19.3321 38.1869 18.474 38.3378C17.616 38.4887 16.7345 38.4369 15.9 38.1866L4.72154 34.8331C3.57035 34.4877 2.56113 33.7805 1.84361 32.8163C1.12609 31.8521 0.738478 30.6823 0.738281 29.4804V8.94186C0.738478 7.73998 1.12609 6.57018 1.84361 5.60599C2.56113 4.6418 3.57035 3.93458 4.72154 3.58924L15.9 0.235695ZM24.9583 4.30652C24.9583 3.8124 25.1546 3.33852 25.504 2.98913C25.8534 2.63973 26.3273 2.44344 26.8214 2.44344H32.4106C33.893 2.44344 35.3146 3.03231 36.3628 4.08049C37.411 5.12868 37.9998 6.55032 37.9998 8.03268V9.89576C37.9998 10.3899 37.8036 10.8638 37.4542 11.2132C37.1048 11.5625 36.6309 11.7588 36.1368 11.7588C35.6426 11.7588 35.1688 11.5625 34.8194 11.2132C34.47 10.8638 34.2737 10.3899 34.2737 9.89576V8.03268C34.2737 7.53856 34.0774 7.06468 33.728 6.71528C33.3786 6.36589 32.9047 6.1696 32.4106 6.1696H26.8214C26.3273 6.1696 25.8534 5.97331 25.504 5.62392C25.1546 5.27452 24.9583 4.80064 24.9583 4.30652ZM36.1368 26.6635C36.6309 26.6635 37.1048 26.8597 37.4542 27.2091C37.8036 27.5585 37.9998 28.0324 37.9998 28.5265V30.3896C37.9998 31.872 37.411 33.2936 36.3628 34.3418C35.3146 35.39 33.893 35.9789 32.4106 35.9789H26.8214C26.3273 35.9789 25.8534 35.7826 25.504 35.4332C25.1546 35.0838 24.9583 34.6099 24.9583 34.1158C24.9583 33.6217 25.1546 33.1478 25.504 32.7984C25.8534 32.449 26.3273 32.2527 26.8214 32.2527H32.4106C32.9047 32.2527 33.3786 32.0564 33.728 31.707C34.0774 31.3576 34.2737 30.8837 34.2737 30.3896V28.5265C34.2737 28.0324 34.47 27.5585 34.8194 27.2091C35.1688 26.8597 35.6426 26.6635 36.1368 26.6635ZM13.7798 17.3481C13.2857 17.3481 12.8118 17.5444 12.4624 17.8938C12.113 18.2431 11.9167 18.717 11.9167 19.2111C11.9167 19.7053 12.113 20.1791 12.4624 20.5285C12.8118 20.8779 13.2857 21.0742 13.7798 21.0742H13.7817C14.2758 21.0742 14.7497 20.8779 15.0991 20.5285C15.4485 20.1791 15.6448 19.7053 15.6448 19.2111C15.6448 18.717 15.4485 18.2431 15.0991 17.8938C14.7497 17.5444 14.2758 17.3481 13.7817 17.3481H13.7798Z" fill="#233299"/>
<path d="M26.8213 19.2109H36.1367H26.8213ZM36.1367 19.2109L32.4105 15.4847L36.1367 19.2109ZM36.1367 19.2109L32.4105 22.9371L36.1367 19.2109Z" fill="#233299"/>
<path d="M36.1367 19.2109L32.4105 22.9371M26.8213 19.2109H36.1367H26.8213ZM36.1367 19.2109L32.4105 15.4847L36.1367 19.2109Z" stroke="#233299" strokeWidth="2" strokeLinecap="round" strokeLinejoin="round"/>
</svg>
