<svg width="44" height="40" viewBox="0 0 44 40" fill="none" xmlns="http://www.w3.org/2000/svg">
<path d="M6.5 8.75H8.75C9.94347 8.75 11.0881 8.27589 11.932 7.43198C12.7759 6.58807 13.25 5.44347 13.25 4.25C13.25 3.65326 13.4871 3.08097 13.909 2.65901C14.331 2.23705 14.9033 2 15.5 2H29C29.5967 2 30.169 2.23705 30.591 2.65901C31.0129 3.08097 31.25 3.65326 31.25 4.25C31.25 5.44347 31.7241 6.58807 32.568 7.43198C33.4119 8.27589 34.5565 8.75 35.75 8.75H38C39.1935 8.75 40.3381 9.22411 41.182 10.068C42.0259 10.9119 42.5 12.0565 42.5 13.25V33.5C42.5 34.6935 42.0259 35.8381 41.182 36.682C40.3381 37.5259 39.1935 38 38 38H6.5C5.30653 38 4.16193 37.5259 3.31802 36.682C2.47411 35.8381 2 34.6935 2 33.5V13.25C2 12.0565 2.47411 10.9119 3.31802 10.068C4.16193 9.22411 5.30653 8.75 6.5 8.75" stroke="current" stroke-width="3" stroke-linecap="round" stroke-linejoin="round"/>
<path d="M15.5 17.75H15.5225M16.625 26.75C17.3582 27.4983 18.2334 28.0929 19.1993 28.4987C20.1652 28.9046 21.2023 29.1136 22.25 29.1136C23.2977 29.1136 24.3348 28.9046 25.3007 28.4987C26.2666 28.0929 27.1418 27.4983 27.875 26.75H16.625ZM29 17.75H29.0225H29Z" stroke="current" stroke-width="3" stroke-linecap="round" stroke-linejoin="round"/>
</svg>
