<svg width="39" height="39" viewBox="0 0 39 39" fill="none" xmlns="http://www.w3.org/2000/svg">
<line x1="6.09766" y1="10.335" x2="20.0311" y2="10.335" stroke="current" strokeWidth="2"/>
<line x1="6.09766" y1="16.0723" x2="13.4742" y2="16.0723" stroke="current" strokeWidth="2"/>
<path d="M25.5158 34.2835C26.7693 34.2835 27.7855 33.2674 27.7855 32.0138C27.7855 30.7603 26.7693 29.7441 25.5158 29.7441C24.2623 29.7441 23.2461 30.7603 23.2461 32.0138C23.2461 33.2674 24.2623 34.2835 25.5158 34.2835Z" stroke="current" strokeWidth="2" strokeLinecap="round" stroke-linejoin="round"/>
<path d="M22.1117 19.5303L26.6511 25.2045H27.7859C28.3879 25.2045 28.9652 25.4437 29.3908 25.8693C29.8165 26.295 30.0556 26.8723 30.0556 27.4742V32.0136H27.7859M23.2465 32.0136H17.5723M17.5723 25.2045H26.6511M19.842 25.2045V19.5303M22.1117 19.5303H17.5723M30.0556 21.8V19.5303M35.7299 26.3394H37.9996M34.0276 30.3114L35.7299 32.0136M34.0276 22.3674L35.7299 20.6651" stroke="current" strokeWidth="2" strokeLinecap="round" stroke-linejoin="round"/>
<path d="M25 1.5H2V37.5H18.5439" stroke="current" strokeWidth="3"/>
<path d="M25.5 0V15.5" stroke="current" strokeWidth="3"/>
</svg>
